<svg width="70" height="70" fill="none" xmlns="http://www.w3.org/2000/svg"><path d="M70 9.9c-.2-.4-.6-.7-1-.8l-4.2-.6L63 4.7c-.4-.8-1.7-.8-2.1 0l-2 3.8-4 .6a1.2 1.2 0 0 0-.7 2l3 3-.7 4.1a1.2 1.2 0 0 0 1.7 1.2l3.7-2 3.7 2a1.2 1.2 0 0 0 1.7-1.2l-.7-4.2 3-3c.4-.2.5-.7.3-1.1Zm-5.4 2.9c-.3.3-.4.7-.4 1l.4 2.5-2.2-1.2a1.2 1.2 0 0 0-1 0l-2.2 1.2.4-2.5c0-.3 0-.7-.3-1l-1.8-1.7 2.4-.4c.4 0 .7-.3 1-.6l1-2.2L63 10c.2.3.5.6.9.6l2.4.4-1.7 1.7ZM57.2 44.9h-2.4v2.3h2.4V45ZM57.2 49.6h-2.4v2.3h2.4v-2.3ZM59.5 47.2h-2.3v2.4h2.3v-2.4ZM54.8 47.2h-2.3v2.4h2.3v-2.4ZM49 57.7h-2.3v2.4H49v-2.4ZM49 62.4h-2.3v2.3H49v-2.3ZM51.3 60H49v2.4h2.3V60ZM46.7 60h-2.4v2.4h2.4V60ZM35 53h-2.3v2.4H35V53ZM35 57.7h-2.3v2.4H35v-2.4ZM37.3 55.4H35v2.3h2.3v-2.3ZM32.7 55.4h-2.4v2.3h2.4v-2.3ZM12.8 13.4h-2.3v2.3h2.3v-2.3ZM12.8 18h-2.3v2.4h2.3V18Z" fill="#2196F3"/><path d="M15.2 15.7h-2.4v2.4h2.4v-2.4ZM10.5 15.7H8.2v2.4h2.3v-2.4Z" fill="#2196F3"/><path d="M54 31a3.9 3.9 0 0 0-2.5-1.6c-1-.1-2.1.2-3 .8l-2.7 2.1-4.2 3.1-3-1.2a15.2 15.2 0 0 0-6.2-29 15.2 15.2 0 0 0-12.7 23.4H13l-7 3.6-4.2 2h-.2a3.9 3.9 0 0 0 4 6.7l3-1.6 5-2.5h3L4.8 48.5l-3 3a3.6 3.6 0 0 0 0 5 3.6 3.6 0 0 0 5.2 0l3-2.8 3.7-2.8 2 2-3.9 3.8L9 59.7a3.6 3.6 0 0 0 0 5.1 3.7 3.7 0 0 0 5.2 0L17 62l4.7-4.7 2.2-2.1 11.3-12.5 7.6 1.1a1.1 1.1 0 0 0 .6 0l.1-.1h.1l7-4.7.1-.1h.1l2.8-2.7a3.9 3.9 0 0 0 .5-5.1ZM4.8 38.9c-.4.2-.8.2-1.3 0a1.6 1.6 0 0 1-.4-2.7l2.8-1.4.7 2 .3 1-2.1 1Zm7.6-4L9 36.6 8.4 35 8 33.8l4.4-2.2V35Zm33-14.5c0 2-.4 3.9-1.3 5.6L35 21.8a4 4 0 0 0-1.7-3l3.2-10.6c5.2 1.6 9 6.5 9 12.2Zm-25.7 0A12.9 12.9 0 0 1 34 7.7L30.9 18a4 4 0 0 0-4.2 4 4 4 0 0 0 7.7 2l8.4 3.9a12.9 12.9 0 0 1-23.2-7.6Zm13 1.7c0 1-.8 1.8-1.8 1.8s-1.7-.8-1.7-1.8.7-1.7 1.7-1.7 1.8.8 1.8 1.7Zm-27.2 33c-.5.4-1.4.4-1.9 0a1.3 1.3 0 0 1 0-2l2.1-2 1.9 1.8L5.4 55Zm7 8c-.5.6-1.3.6-1.8 0a1.3 1.3 0 0 1 0-1.8l2-2 1 .8 1 1-2.2 2Zm7.6-7.5-3.8 3.8-1-.8-.9-1 3.9-3.9.2-.3V53l.1-.2v-.4l-.3-.3V52l-3.5-3.5h-.2l-.2-.2h-.2l-.2-.1h-.4l-.2.1H13l-3.8 3-2-2 5.2-5.2 9.6 9.4-2 2Zm15-15.4h-.1a1.1 1.1 0 0 0-.9.3v.1L23.6 52l-9.5-9.3 6.2-6.2a1.2 1.2 0 0 0-.8-2h-4.9V31h6.8a15.2 15.2 0 0 0 13.7 4.4l.3.2 5.3 2 .3 1.7.4 2-6.5-1Zm8.8.4-.7-3.4 3.2-2.3.8 1 1.2 1.7-4.5 3Zm8.2-6.2-1.8 1.8-2-2.8 1.8-1.3c.3-.3.7-.4 1.1-.4a1.6 1.6 0 0 1 1 2.7Z" fill="#212121"/><path d="M29.8 40.6 25 35.9c-.5-.5-1.2-.5-1.7 0l-4.7 4.7a1.2 1.2 0 0 0 0 1.6l4.7 4.7a1.2 1.2 0 0 0 1.7 0l4.7-4.7a1.2 1.2 0 0 0 0-1.6Zm-5.6 3.8-3-3 3-3 3 3-3 3ZM37.5 11l-.5 2.4c.1 0 3.8 1 3.8 4.7H43c0-4.5-3.6-6.5-5.6-7ZM43.1 20.4h-2.3v2.3H43v-2.3Z" fill="#212121"/></svg>