<svg width="106" height="60" fill="none" xmlns="http://www.w3.org/2000/svg"><path fill-rule="evenodd" clip-rule="evenodd" d="m38 7 7 6.63H32V45.8h34v-12.3l7 6.62V7H38Zm27.7 25.73L45.81 13.92H65.7v18.8Zm-6.18 8.38H37.38V19.46h1.57v20.18h20.57v1.47ZM42.61 50.1l-.82 1.68-.82-1.68h-.68l1.2 2.25v1.3h.61v-1.3l1.2-2.25h-.7Zm1.03 3.55.28-.82h1.38l.3.82h.64l-1.35-3.55h-.55l-1.35 3.55h.65Zm.97-2.8.52 1.48H44.1l.51-1.48Zm3.26 1.4a.8.8 0 0 0-.13.44c0 .3.1.55.31.73.21.19.5.28.85.28s.65-.1.9-.28l.2.23h.7l-.53-.61c.2-.28.3-.64.3-1.08h-.5c0 .24-.06.46-.16.65l-.68-.8.24-.19c.17-.12.3-.24.37-.37a.78.78 0 0 0-.14-.97.9.9 0 0 0-.63-.23.95.95 0 0 0-.69.24.87.87 0 0 0-.25.66c0 .12.03.24.08.36s.15.27.29.44a2.1 2.1 0 0 0-.53.5Zm1.6.78a.9.9 0 0 1-.56.2.58.58 0 0 1-.42-.15.53.53 0 0 1-.16-.4c0-.2.1-.36.3-.51l.07-.06.77.92Zm-.63-1.58c-.17-.2-.25-.37-.25-.51 0-.12.03-.22.1-.3a.35.35 0 0 1 .27-.11c.11 0 .2.03.27.1.07.06.1.14.1.23 0 .14-.05.26-.15.35l-.07.06-.27.18Zm5.78 1.94c.25-.22.39-.51.42-.9h-.61c-.03.26-.11.44-.23.55-.13.11-.3.16-.55.16a.69.69 0 0 1-.6-.3c-.14-.2-.21-.5-.21-.88v-.31c0-.38.07-.67.22-.86.14-.2.35-.3.62-.3.23 0 .4.06.52.17.12.11.2.3.23.55h.61a1.34 1.34 0 0 0-.41-.9 1.37 1.37 0 0 0-.95-.32c-.3 0-.55.07-.77.2-.22.15-.4.34-.51.6-.12.25-.18.55-.18.88v.34c0 .32.06.61.18.86s.28.44.5.57c.22.14.47.2.75.2.4 0 .73-.1.97-.31Zm3.63-.5c.12-.27.18-.57.18-.92v-.2c0-.35-.06-.65-.18-.9a1.36 1.36 0 0 0-1.3-.82c-.28 0-.54.07-.76.21-.22.14-.4.35-.52.61-.12.27-.19.57-.19.92v.2c0 .34.07.64.19.9s.3.46.52.6c.23.14.49.21.77.21.3 0 .55-.07.78-.2.22-.15.4-.35.51-.61Zm-.66-2.01c.15.2.23.51.23.9v.19c0 .4-.08.7-.23.91a.72.72 0 0 1-.63.31.74.74 0 0 1-.63-.31 1.55 1.55 0 0 1-.23-.91v-.2c0-.39.08-.68.23-.9a.73.73 0 0 1 .63-.3c.27 0 .48.1.63.3Z" fill="#AFB1B8"/></svg>