<svg width="106" height="60" fill="none" xmlns="http://www.w3.org/2000/svg"><path d="m36.4 49.1.3.2-.6.4-.9.2c-.3 0-.5 0-.8-.2l-.6-.3-.4-.6a2 2 0 0 1 0-1.5l.4-.6c.2-.1.4-.3.7-.3a2.6 2.6 0 0 1 1.6 0l.6.3-.2.2H36.2l-.1-.1a1.5 1.5 0 0 0-.8-.2l-.6.1-.5.3c0 .2-.2.3-.3.5v1.2l.3.4.5.3H35.6a1.3 1.3 0 0 0 .7-.3h.1ZM42.7 48l-.1.8-.5.6-.6.3c-.5.2-1.1.2-1.7 0a2 2 0 0 1-.6-.3l-.4-.6a2 2 0 0 1 0-1.5c0-.2.2-.4.4-.6l.6-.3c.6-.2 1.2-.2 1.7 0l.6.3a1.7 1.7 0 0 1 .6 1.4Zm-.6 0v-.5a1.2 1.2 0 0 0-.8-.8 2 2 0 0 0-1.2 0l-.5.3-.3.5v1.1a1.2 1.2 0 0 0 .8.8h1.2l.4-.3c.2-.1.3-.3.3-.5l.1-.5ZM47 48.7v.1l.1-.1v-.2l1.5-2.2H49.3v3.5h-.5V47l-1.4 2.2-.2.1h-.2L45.3 47V49.9h-.5v-3.5h.6l1.4 2.2.1.2ZM52.2 48.5v1.3h-.5v-3.5h1.9c.2 0 .3.2.5.3l.2.3.1.5v.4l-.4.4-.4.2-.7.1h-.7Zm0-.4h1.1l.3-.2.2-.2V47c0-.1 0-.2-.2-.3l-.7-.2h-.7v1.5ZM59.6 49.8H59l-.4-1h-1.9l-.4 1H55.7l1.6-3.5h.6l1.7 3.5Zm-2.7-1.3h1.5l-.6-1.4-.2-.4v.4l-.7 1.4ZM62 46.3l2.4 2.7v-2.7h.5v3.5h-.4L62 47v2.7h-.5v-3.5h.4ZM68.9 48.4v1.4h-.5v-1.4l-1.6-2.1h.7l1 1.5a2.1 2.1 0 0 1 .1.3l.1-.2.1-.1 1-1.4v-.1h.6L69 48.4ZM46.7 40.3h.8a20 20 0 0 0 8.9-6.7c2.2-3 3.3-6.4 3.2-10l-4-3.4a18 18 0 0 1-1.2 11.1 21 21 0 0 1-7.7 9Z" fill="#AFB1B8"/><path d="M45.3 40v.1c3.8-2.3 6.6-5.5 8.2-9.2 1.6-3.7 1.8-7.8.7-11.6l-5.7-5A21.5 21.5 0 0 1 45.3 40ZM64.9 27.8a18 18 0 0 1-6.8 10l-3.3 2a20 20 0 0 0 7.6-3.8c2-1.7 3.8-3.8 4.8-6.1l-2.3-2Z" fill="#AFB1B8"/><path d="m64 27.3-3.4-3c0 3.4-1.1 6.6-3.1 9.4-2 2.8-4.8 5.1-8.2 6.7l2.3-.1c3.1-1.1 5.9-3 8-5.2a17 17 0 0 0 4.3-7.8ZM45.8 12.2l-4-3.5a18.7 18.7 0 0 0-8.8 6 15 15 0 0 0-3.3 9.3c0 3.7 1.4 7.2 4 10C36.3 37 40 39 44 40a21.2 21.2 0 0 0 1.7-27.7ZM73.1 26.7c0-4.3-2-8.5-5.5-11.5a20.5 20.5 0 0 0-20-3.8l24.3 21.2c.8-1.9 1.2-3.9 1.2-5.9Z" fill="#AFB1B8"/></svg>